# xmcd CD database file
#
# Track frame offsets:
#	150
#	22335
#	37964
#	56582
#	69629
#	96315
#	120281
#	143007
#	168843
#
# Disc length: 2766 seconds
#
# Revision: 0
# Processed by: cddbd v1.5.1PL0 Copyright (c) Steve Scherf et al.
# Submitted via: CDex 1.51
#
DISCID=750acc09
DTITLE=Juez Breakbeat Klezmer Jazz - Shemspeed Alt Schule
DYEAR=2004
DGENRE=Jazz
TTITLE0=Sitra Achra
TTITLE1=Who Knows 8
TTITLE2=New Yemenite
TTITLE3=Dubic
TTITLE4=Upon Seeing Exceptionally Strange Looking People or Animals
TTITLE5=Aniti
TTITLE6=Adom
TTITLE7=Yeush She'lo M'daat
TTITLE8=Mori Awad (...uncle Izzy ?)
EXTD=YEAR: 2004
EXTT0=
EXTT1=
EXTT2=
EXTT3=
EXTT4=
EXTT5=
EXTT6=
EXTT7=
EXTT8=
PLAYORDER=
